<?xml version="1.0" encoding="UTF-8" standalone="no"?>
<!-- Created with Inkscape (http://www.inkscape.org/) -->

<svg
   xmlns:dc="http://purl.org/dc/elements/1.1/"
   xmlns:cc="http://creativecommons.org/ns#"
   xmlns:rdf="http://www.w3.org/1999/02/22-rdf-syntax-ns#"
   xmlns:svg="http://www.w3.org/2000/svg"
   xmlns="http://www.w3.org/2000/svg"
   xmlns:sodipodi="http://sodipodi.sourceforge.net/DTD/sodipodi-0.dtd"
   xmlns:inkscape="http://www.inkscape.org/namespaces/inkscape"
   width="70mm"
   height="70mm"
   viewBox="0 0 70 70"
   version="1.1"
   id="svg8"
   inkscape:version="0.92.2 5c3e80d, 2017-08-06"
   sodipodi:docname="pixelated logo.svg">
  <defs
     id="defs2" />
  <sodipodi:namedview
     id="base"
     pagecolor="#ffffff"
     bordercolor="#666666"
     borderopacity="1.0"
     inkscape:pageopacity="0.0"
     inkscape:pageshadow="2"
     inkscape:zoom="0.70000001"
     inkscape:cx="160.68349"
     inkscape:cy="102.85714"
     inkscape:document-units="mm"
     inkscape:current-layer="layer1"
     showgrid="true"
     inkscape:window-width="1920"
     inkscape:window-height="1178"
     inkscape:window-x="0"
     inkscape:window-y="0"
     inkscape:window-maximized="1">
    <inkscape:grid
       type="xygrid"
       id="grid815"
       units="mm"
       spacingx="0.99999999"
       spacingy="0.99999999"
       empspacing="10" />
  </sodipodi:namedview>
  <metadata
     id="metadata5">
    <rdf:RDF>
      <cc:Work
         rdf:about="">
        <dc:format>image/svg+xml</dc:format>
        <dc:type
           rdf:resource="http://purl.org/dc/dcmitype/StillImage" />
        <dc:title></dc:title>
      </cc:Work>
    </rdf:RDF>
  </metadata>
  <g
     inkscape:label="Layer 1"
     inkscape:groupmode="layer"
     id="layer1"
     transform="translate(0,-227)">
    <path
       style="fill:#000000;fill-rule:evenodd;stroke:none;stroke-width:0.26448694px;stroke-linecap:butt;stroke-linejoin:miter;stroke-opacity:1"
       d="m 11.991044,227.00014 a 1.9985431,1.9999997 0 0 0 -1.9984206,1.99988 v 5.99963 a 1.9985432,1.9999998 0 0 1 -1.9984215,2.0004 H 1.9984215 A 1.9985431,1.9999997 0 0 0 3.8056513e-8,238.99992 V 284.9997 A 1.9985431,1.9999997 0 0 0 1.9984215,287.00009 h 5.9957804 a 1.9985432,1.9999998 0 0 1 1.9984215,1.99988 v 6.00015 A 1.9985431,1.9999997 0 0 0 11.991044,297 h 45.96679 a 1.9985431,1.9999997 0 0 0 1.99842,-1.99988 v -6.00015 a 1.9985432,1.9999998 0 0 1 1.998424,-1.99988 h 5.995779 a 1.9985431,1.9999997 0 0 0 1.99842,-2.00039 V 239.44227 A 1.9985432,1.9999998 0 0 0 70,238.99992 a 1.9985432,1.9999998 0 0 0 -1.99842,-1.99987 1.9985432,1.9999998 0 0 0 -0.02685,0.001 1.9985431,1.9999997 0 0 0 -0.02427,-0.001 h -5.995779 a 1.9985433,1.9999999 0 0 1 -1.998424,-2.0004 v -5.99963 a 1.9985431,1.9999997 0 0 0 -1.99842,-1.99988 z"
       id="path929"
       inkscape:connector-curvature="0" />
    <path
       style="opacity:1;fill:#ff69b4;fill-opacity:1;stroke:none;stroke-width:5;stroke-linecap:round;stroke-linejoin:round;stroke-miterlimit:4;stroke-dasharray:none;stroke-opacity:1"
       d="m 22.000207,237.00005 c -1.108001,0 -2.000394,0.89187 -2.000394,1.99987 v 6.00015 a 1.9999998,1.9999998 0 0 1 -1.999878,1.99988 h -6.000151 c -1.108001,0 -1.9998775,0.89188 -1.9998775,1.99988 v 25.99996 c 0,1.108 0.8918765,1.99988 1.9998775,1.99988 h 6.000151 a 1.9999999,1.9999999 0 0 1 1.999878,2.00039 v 5.99964 c 0,1.108 0.892393,2.00039 2.000394,2.00039 h 15.999539 c 1.108001,0 2.000396,-0.89239 2.000396,-2.00039 v -5.99964 c 0,-1.10799 -0.892395,-2.00039 -2.000396,-2.00039 H 22.000207 a 1.9999998,1.9999998 0 0 1 -2.000394,-1.99988 v -25.99996 a 1.9999998,1.9999998 0 0 1 2.000394,-1.99988 h 25.999964 a 1.9999998,1.9999998 0 0 1 1.999876,1.99988 v 16.00006 c 0,1.108 0.891879,1.99987 1.999877,1.99987 h 6.000152 c 1.108001,0 1.999877,-0.89187 1.999877,-1.99987 v -16.00006 c 0,-1.108 -0.891876,-1.99988 -1.999877,-1.99988 h -6.000152 a 1.9999997,1.9999997 0 0 1 -1.999877,-1.99988 v -6.00015 c 0,-1.108 -0.891878,-1.99987 -1.999876,-1.99987 z m 9.999906,19.99981 c -1.108001,0 -2.000395,0.89189 -2.000395,1.99987 v 6.00016 c 0,1.108 0.892394,1.99987 2.000395,1.99987 h 5.999633 a 1.9999999,1.9999999 0 0 1 2.000396,1.99988 v 6.00015 c 0,1.108 0.891878,1.99988 1.999877,1.99988 h 6.000152 a 1.9999998,1.9999998 0 0 1 1.999876,2.00039 v 5.99964 c 0,1.108 0.891876,2.00039 1.999877,2.00039 h 6.000152 c 1.108001,0 1.999877,-0.89239 1.999877,-2.00039 v -5.99964 c 0,-1.10799 -0.891876,-2.00039 -1.999877,-2.00039 h -6.000152 a 1.9999998,1.9999998 0 0 1 -1.999877,-1.99988 v -6.00015 c 0,-1.108 -0.891878,-1.99988 -1.999876,-1.99988 h -6.000152 a 1.9999998,1.9999998 0 0 1 -1.999877,-1.99987 v -6.00016 c 0,-1.10798 -0.892395,-1.99987 -2.000396,-1.99987 z"
       id="rect851"
       inkscape:connector-curvature="0" />
    <g
       aria-label="QueeriousLabs.com"
       style="font-style:normal;font-weight:normal;font-size:2.78427458px;line-height:125%;font-family:sans-serif;text-align:center;letter-spacing:0px;word-spacing:0px;text-anchor:middle;fill:#b4ff69;fill-opacity:1;stroke:none;stroke-width:0.22274196px;stroke-linecap:butt;stroke-linejoin:miter;stroke-opacity:1"
       id="text1007">
      <path
         d="m 16.949999,291.41513 q 0.02376,0.095 0.02376,0.23759 0,0.13661 -0.02376,0.23759 0.02376,0.095 0.02376,0.23759 0,0.13661 -0.02376,0.23759 h -0.178194 q 0.02376,0.095 0.02376,0.23759 0,0.13662 -0.02376,0.23759 h -0.296989 q 0.02376,0.095 0.02376,0.2376 0,0.13661 -0.02376,0.23759 h 0.237591 q 0.02376,0.095 0.02376,0.23759 0,0.13661 -0.02376,0.23759 h 0.237592 q 0.02376,0.095 0.02376,0.23759 0,0.13662 -0.02376,0.23759 h -0.475183 q -0.02376,-0.10097 -0.02376,-0.23759 0,-0.14255 0.02376,-0.23759 h -0.237592 q -0.02376,-0.10098 -0.02376,-0.23759 0,-0.14256 0.02376,-0.23759 H 15.52445 q -0.02376,-0.10098 -0.02376,-0.23759 0,-0.14256 0.02376,-0.2376 h -0.296989 q -0.02376,-0.10097 -0.02376,-0.23759 0,-0.14255 0.02376,-0.23759 h -0.178194 q -0.02376,-0.10098 -0.02376,-0.23759 0,-0.14256 0.02376,-0.23759 -0.02376,-0.10098 -0.02376,-0.23759 0,-0.14256 0.02376,-0.23759 -0.02376,-0.10098 -0.02376,-0.2376 0,-0.14255 0.02376,-0.23759 h 0.178194 q -0.02376,-0.10097 -0.02376,-0.23759 0,-0.14255 0.02376,-0.23759 h 0.296989 q -0.02376,-0.10098 -0.02376,-0.23759 0,-0.14256 0.02376,-0.23759 h 0.950366 q 0.02376,0.095 0.02376,0.23759 0,0.13661 -0.02376,0.23759 h 0.296989 q 0.02376,0.095 0.02376,0.23759 0,0.13662 -0.02376,0.23759 h 0.178194 q 0.02376,0.095 0.02376,0.23759 0,0.13662 -0.02376,0.2376 z m -0.475183,0.95036 q -0.02376,-0.10098 -0.02376,-0.23759 0,-0.14256 0.02376,-0.23759 -0.02376,-0.10098 -0.02376,-0.23759 0,-0.14256 0.02376,-0.23759 -0.02376,-0.10098 -0.02376,-0.2376 0,-0.14255 0.02376,-0.23759 h -0.178194 q -0.02376,-0.10097 -0.02376,-0.23759 0,-0.14255 0.02376,-0.23759 h -0.593978 q 0.02376,0.095 0.02376,0.23759 0,0.13662 -0.02376,0.23759 H 15.52445 q 0.02376,0.095 0.02376,0.23759 0,0.13662 -0.02376,0.2376 0.02376,0.095 0.02376,0.23759 0,0.13661 -0.02376,0.23759 0.02376,0.095 0.02376,0.23759 0,0.13661 -0.02376,0.23759 h 0.178194 q 0.02376,0.095 0.02376,0.23759 0,0.13662 -0.02376,0.23759 h 0.593978 q -0.02376,-0.10097 -0.02376,-0.23759 0,-0.14255 0.02376,-0.23759 z"
         style="font-style:normal;font-variant:normal;font-weight:normal;font-stretch:normal;font-size:5.93978548px;font-family:VT323;-inkscape-font-specification:VT323;fill:#b4ff69;fill-opacity:1;stroke-width:0.22274196px"
         id="path1918"
         inkscape:connector-curvature="0" />
      <path
         d="m 18.104637,292.60308 q 0,0.13662 -0.02376,0.23759 h 0.593979 q 0.02376,0.095 0.02376,0.2376 0,0.13661 -0.02376,0.23759 H 17.72449 q -0.02376,-0.10098 -0.02376,-0.23759 0,-0.14256 0.02376,-0.2376 h -0.296989 q -0.02376,-0.10097 -0.02376,-0.23759 0,-0.14255 0.02376,-0.23759 -0.02376,-0.10098 -0.02376,-0.23759 0,-0.14256 0.02376,-0.23759 -0.02376,-0.10098 -0.02376,-0.23759 0,-0.14256 0.02376,-0.23759 -0.02376,-0.10098 -0.02376,-0.2376 0,-0.14255 0.02376,-0.23759 h 0.475183 q 0.02376,0.095 0.02376,0.23759 0,0.13662 -0.02376,0.2376 0.02376,0.095 0.02376,0.23759 0,0.13661 -0.02376,0.23759 0.02376,0.095 0.02376,0.23759 0,0.13661 -0.02376,0.23759 h 0.178193 q 0.02376,0.095 0.02376,0.23759 z m 1.223596,-1.18795 q 0.02376,0.095 0.02376,0.23759 0,0.13661 -0.02376,0.23759 0.02376,0.095 0.02376,0.23759 0,0.13661 -0.02376,0.23759 0.02376,0.095 0.02376,0.23759 0,0.13662 -0.02376,0.23759 0.02376,0.095 0.02376,0.2376 0,0.13661 -0.02376,0.23759 H 18.85305 q -0.02376,-0.10098 -0.02376,-0.23759 0,-0.14256 0.02376,-0.2376 h -0.178193 q -0.02376,-0.10097 -0.02376,-0.23759 0,-0.14255 0.02376,-0.23759 h 0.178193 q -0.02376,-0.10098 -0.02376,-0.23759 0,-0.14256 0.02376,-0.23759 -0.02376,-0.10098 -0.02376,-0.23759 0,-0.14256 0.02376,-0.23759 -0.02376,-0.10098 -0.02376,-0.2376 0,-0.14255 0.02376,-0.23759 h 0.475183 q 0.02376,0.095 0.02376,0.23759 0,0.13662 -0.02376,0.2376 z"
         style="font-style:normal;font-variant:normal;font-weight:normal;font-stretch:normal;font-size:5.93978548px;font-family:VT323;-inkscape-font-specification:VT323;fill:#b4ff69;fill-opacity:1;stroke-width:0.22274196px"
         id="path1920"
         inkscape:connector-curvature="0" />
      <path
         d="m 21.730227,291.65272 q 0,0.13661 -0.02376,0.23759 0.02376,0.095 0.02376,0.23759 0,0.13661 -0.02376,0.23759 h -1.247355 q 0.02376,0.095 0.02376,0.23759 0,0.13662 -0.02376,0.23759 h 1.009763 q 0.02376,0.095 0.02376,0.2376 0,0.13661 -0.02376,0.23759 h -1.187957 q -0.02376,-0.10098 -0.02376,-0.23759 0,-0.14256 0.02376,-0.2376 H 19.98393 q -0.02376,-0.10097 -0.02376,-0.23759 0,-0.14255 0.02376,-0.23759 h -0.178194 q -0.02376,-0.10098 -0.02376,-0.23759 0,-0.14256 0.02376,-0.23759 h 0.178194 q -0.02376,-0.10098 -0.02376,-0.23759 0,-0.14256 0.02376,-0.23759 h 0.296989 q -0.02376,-0.10098 -0.02376,-0.2376 0,-0.14255 0.02376,-0.23759 h 1.187957 q 0.02376,0.095 0.02376,0.23759 0,0.13662 -0.02376,0.2376 h 0.237592 q 0.02376,0.095 0.02376,0.23759 z m -0.498942,0.23759 q -0.02376,-0.10098 -0.02376,-0.23759 0,-0.14256 0.02376,-0.23759 h -0.772172 q 0.02376,0.095 0.02376,0.23759 0,0.13661 -0.02376,0.23759 z"
         style="font-style:normal;font-variant:normal;font-weight:normal;font-stretch:normal;font-size:5.93978548px;font-family:VT323;-inkscape-font-specification:VT323;fill:#b4ff69;fill-opacity:1;stroke-width:0.22274196px"
         id="path1922"
         inkscape:connector-curvature="0" />
      <path
         d="m 24.108461,291.65272 q 0,0.13661 -0.02376,0.23759 0.02376,0.095 0.02376,0.23759 0,0.13661 -0.02376,0.23759 h -1.247355 q 0.02376,0.095 0.02376,0.23759 0,0.13662 -0.02376,0.23759 h 1.009763 q 0.02376,0.095 0.02376,0.2376 0,0.13661 -0.02376,0.23759 h -1.187957 q -0.02376,-0.10098 -0.02376,-0.23759 0,-0.14256 0.02376,-0.2376 h -0.296989 q -0.02376,-0.10097 -0.02376,-0.23759 0,-0.14255 0.02376,-0.23759 H 22.18397 q -0.02376,-0.10098 -0.02376,-0.23759 0,-0.14256 0.02376,-0.23759 h 0.178193 q -0.02376,-0.10098 -0.02376,-0.23759 0,-0.14256 0.02376,-0.23759 h 0.296989 q -0.02376,-0.10098 -0.02376,-0.2376 0,-0.14255 0.02376,-0.23759 h 1.187957 q 0.02376,0.095 0.02376,0.23759 0,0.13662 -0.02376,0.2376 h 0.237592 q 0.02376,0.095 0.02376,0.23759 z m -0.498942,0.23759 q -0.02376,-0.10098 -0.02376,-0.23759 0,-0.14256 0.02376,-0.23759 h -0.772172 q 0.02376,0.095 0.02376,0.23759 0,0.13661 -0.02376,0.23759 z"
         style="font-style:normal;font-variant:normal;font-weight:normal;font-stretch:normal;font-size:5.93978548px;font-family:VT323;-inkscape-font-specification:VT323;fill:#b4ff69;fill-opacity:1;stroke-width:0.22274196px"
         id="path1924"
         inkscape:connector-curvature="0" />
      <path
         d="m 26.462936,291.41513 q 0.02376,0.095 0.02376,0.23759 0,0.13661 -0.02376,0.23759 h -0.475183 q -0.02376,-0.10098 -0.02376,-0.23759 0,-0.14256 0.02376,-0.23759 h -0.415785 q 0.02376,0.095 0.02376,0.23759 0,0.13661 -0.02376,0.23759 h -0.178193 q 0.02376,0.095 0.02376,0.23759 0,0.13661 -0.02376,0.23759 0.02376,0.095 0.02376,0.23759 0,0.13662 -0.02376,0.23759 h 0.356387 q 0.02376,0.095 0.02376,0.2376 0,0.13661 -0.02376,0.23759 h -1.187957 q -0.02376,-0.10098 -0.02376,-0.23759 0,-0.14256 0.02376,-0.2376 h 0.356387 q -0.02376,-0.10097 -0.02376,-0.23759 0,-0.14255 0.02376,-0.23759 -0.02376,-0.10098 -0.02376,-0.23759 0,-0.14256 0.02376,-0.23759 -0.02376,-0.10098 -0.02376,-0.23759 0,-0.14256 0.02376,-0.23759 h -0.356387 q -0.02376,-0.10098 -0.02376,-0.2376 0,-0.14255 0.02376,-0.23759 h 0.593978 q 0.02376,0.095 0.02376,0.23759 0,0.13662 -0.02376,0.2376 h 0.237592 q -0.02376,-0.10098 -0.02376,-0.2376 0,-0.14255 0.02376,-0.23759 h 0.890968 q 0.02376,0.095 0.02376,0.23759 0,0.13662 -0.02376,0.2376 z"
         style="font-style:normal;font-variant:normal;font-weight:normal;font-stretch:normal;font-size:5.93978548px;font-family:VT323;-inkscape-font-specification:VT323;fill:#b4ff69;fill-opacity:1;stroke-width:0.22274196px"
         id="path1926"
         inkscape:connector-curvature="0" />
      <path
         d="m 27.653214,290.46476 q -0.02376,-0.10098 -0.02376,-0.23759 0,-0.14256 0.02376,-0.23759 h 0.475183 q 0.02376,0.095 0.02376,0.23759 0,0.13661 -0.02376,0.23759 z m 0.950366,2.37591 q 0.02376,0.095 0.02376,0.2376 0,0.13661 -0.02376,0.23759 h -1.425549 q -0.02376,-0.10098 -0.02376,-0.23759 0,-0.14256 0.02376,-0.2376 h 0.475183 q -0.02376,-0.10097 -0.02376,-0.23759 0,-0.14255 0.02376,-0.23759 -0.02376,-0.10098 -0.02376,-0.23759 0,-0.14256 0.02376,-0.23759 -0.02376,-0.10098 -0.02376,-0.23759 0,-0.14256 0.02376,-0.23759 h -0.356387 q -0.02376,-0.10098 -0.02376,-0.2376 0,-0.14255 0.02376,-0.23759 h 0.83157 q 0.02376,0.095 0.02376,0.23759 0,0.13662 -0.02376,0.2376 0.02376,0.095 0.02376,0.23759 0,0.13661 -0.02376,0.23759 0.02376,0.095 0.02376,0.23759 0,0.13661 -0.02376,0.23759 0.02376,0.095 0.02376,0.23759 0,0.13662 -0.02376,0.23759 z"
         style="font-style:normal;font-variant:normal;font-weight:normal;font-stretch:normal;font-size:5.93978548px;font-family:VT323;-inkscape-font-specification:VT323;fill:#b4ff69;fill-opacity:1;stroke-width:0.22274196px"
         id="path1928"
         inkscape:connector-curvature="0" />
      <path
         d="m 31.243164,292.1279 q 0,0.13661 -0.02376,0.23759 H 31.04121 q 0.02376,0.095 0.02376,0.23759 0,0.13662 -0.02376,0.23759 h -0.296989 q 0.02376,0.095 0.02376,0.2376 0,0.13661 -0.02376,0.23759 h -0.950365 q -0.02376,-0.10098 -0.02376,-0.23759 0,-0.14256 0.02376,-0.2376 h -0.29699 q -0.02376,-0.10097 -0.02376,-0.23759 0,-0.14255 0.02376,-0.23759 h -0.178193 q -0.02376,-0.10098 -0.02376,-0.23759 0,-0.14256 0.02376,-0.23759 h 0.178193 q -0.02376,-0.10098 -0.02376,-0.23759 0,-0.14256 0.02376,-0.23759 h 0.29699 q -0.02376,-0.10098 -0.02376,-0.2376 0,-0.14255 0.02376,-0.23759 h 0.950365 q 0.02376,0.095 0.02376,0.23759 0,0.13662 -0.02376,0.2376 h 0.296989 q 0.02376,0.095 0.02376,0.23759 0,0.13661 -0.02376,0.23759 h 0.178194 q 0.02376,0.095 0.02376,0.23759 z m -0.498942,0.23759 q -0.02376,-0.10098 -0.02376,-0.23759 0,-0.14256 0.02376,-0.23759 h -0.178193 q -0.02376,-0.10098 -0.02376,-0.23759 0,-0.14256 0.02376,-0.23759 H 29.97205 q 0.02376,0.095 0.02376,0.23759 0,0.13661 -0.02376,0.23759 h -0.178193 q 0.02376,0.095 0.02376,0.23759 0,0.13661 -0.02376,0.23759 h 0.178193 q 0.02376,0.095 0.02376,0.23759 0,0.13662 -0.02376,0.23759 h 0.593979 q -0.02376,-0.10097 -0.02376,-0.23759 0,-0.14255 0.02376,-0.23759 z"
         style="font-style:normal;font-variant:normal;font-weight:normal;font-stretch:normal;font-size:5.93978548px;font-family:VT323;-inkscape-font-specification:VT323;fill:#b4ff69;fill-opacity:1;stroke-width:0.22274196px"
         id="path1930"
         inkscape:connector-curvature="0" />
      <path
         d="m 32.374043,292.60308 q 0,0.13662 -0.02376,0.23759 h 0.593979 q 0.02376,0.095 0.02376,0.2376 0,0.13661 -0.02376,0.23759 h -0.950366 q -0.02376,-0.10098 -0.02376,-0.23759 0,-0.14256 0.02376,-0.2376 h -0.296989 q -0.02376,-0.10097 -0.02376,-0.23759 0,-0.14255 0.02376,-0.23759 -0.02376,-0.10098 -0.02376,-0.23759 0,-0.14256 0.02376,-0.23759 -0.02376,-0.10098 -0.02376,-0.23759 0,-0.14256 0.02376,-0.23759 -0.02376,-0.10098 -0.02376,-0.2376 0,-0.14255 0.02376,-0.23759 h 0.475182 q 0.02376,0.095 0.02376,0.23759 0,0.13662 -0.02376,0.2376 0.02376,0.095 0.02376,0.23759 0,0.13661 -0.02376,0.23759 0.02376,0.095 0.02376,0.23759 0,0.13661 -0.02376,0.23759 h 0.178194 q 0.02376,0.095 0.02376,0.23759 z m 1.223596,-1.18795 q 0.02376,0.095 0.02376,0.23759 0,0.13661 -0.02376,0.23759 0.02376,0.095 0.02376,0.23759 0,0.13661 -0.02376,0.23759 0.02376,0.095 0.02376,0.23759 0,0.13662 -0.02376,0.23759 0.02376,0.095 0.02376,0.2376 0,0.13661 -0.02376,0.23759 h -0.475183 q -0.02376,-0.10098 -0.02376,-0.23759 0,-0.14256 0.02376,-0.2376 h -0.178193 q -0.02376,-0.10097 -0.02376,-0.23759 0,-0.14255 0.02376,-0.23759 h 0.178193 q -0.02376,-0.10098 -0.02376,-0.23759 0,-0.14256 0.02376,-0.23759 -0.02376,-0.10098 -0.02376,-0.23759 0,-0.14256 0.02376,-0.23759 -0.02376,-0.10098 -0.02376,-0.2376 0,-0.14255 0.02376,-0.23759 h 0.475183 q 0.02376,0.095 0.02376,0.23759 0,0.13662 -0.02376,0.2376 z"
         style="font-style:normal;font-variant:normal;font-weight:normal;font-stretch:normal;font-size:5.93978548px;font-family:VT323;-inkscape-font-specification:VT323;fill:#b4ff69;fill-opacity:1;stroke-width:0.22274196px"
         id="path1932"
         inkscape:connector-curvature="0" />
      <path
         d="m 35.880837,292.60308 q 0,0.13662 -0.02376,0.23759 h -0.237591 q 0.02376,0.095 0.02376,0.2376 0,0.13661 -0.02376,0.23759 h -1.306753 q -0.02376,-0.10098 -0.02376,-0.23759 0,-0.14256 0.02376,-0.2376 h 1.069161 q -0.02376,-0.10097 -0.02376,-0.23759 0,-0.14255 0.02376,-0.23759 H 34.43153 q -0.02376,-0.10098 -0.02376,-0.23759 0,-0.14256 0.02376,-0.23759 h -0.237592 q -0.02376,-0.10098 -0.02376,-0.23759 0,-0.14256 0.02376,-0.23759 h 0.237592 q -0.02376,-0.10098 -0.02376,-0.2376 0,-0.14255 0.02376,-0.23759 h 1.306752 q 0.02376,0.095 0.02376,0.23759 0,0.13662 -0.02376,0.2376 h -1.069161 q 0.02376,0.095 0.02376,0.23759 0,0.13661 -0.02376,0.23759 h 0.950366 q 0.02376,0.095 0.02376,0.23759 0,0.13661 -0.02376,0.23759 h 0.237591 q 0.02376,0.095 0.02376,0.23759 z"
         style="font-style:normal;font-variant:normal;font-weight:normal;font-stretch:normal;font-size:5.93978548px;font-family:VT323;-inkscape-font-specification:VT323;fill:#b4ff69;fill-opacity:1;stroke-width:0.22274196px"
         id="path1934"
         inkscape:connector-curvature="0" />
      <path
         d="m 38.354109,292.84067 q 0.02376,0.095 0.02376,0.2376 0,0.13661 -0.02376,0.23759 h -1.66314 q -0.02376,-0.10098 -0.02376,-0.23759 0,-0.14256 0.02376,-0.2376 -0.02376,-0.10097 -0.02376,-0.23759 0,-0.14255 0.02376,-0.23759 -0.02376,-0.10098 -0.02376,-0.23759 0,-0.14256 0.02376,-0.23759 -0.02376,-0.10098 -0.02376,-0.23759 0,-0.14256 0.02376,-0.23759 -0.02376,-0.10098 -0.02376,-0.2376 0,-0.14255 0.02376,-0.23759 -0.02376,-0.10097 -0.02376,-0.23759 0,-0.14255 0.02376,-0.23759 -0.02376,-0.10098 -0.02376,-0.23759 0,-0.14256 0.02376,-0.23759 h 0.475183 q 0.02376,0.095 0.02376,0.23759 0,0.13661 -0.02376,0.23759 0.02376,0.095 0.02376,0.23759 0,0.13662 -0.02376,0.23759 0.02376,0.095 0.02376,0.23759 0,0.13662 -0.02376,0.2376 0.02376,0.095 0.02376,0.23759 0,0.13661 -0.02376,0.23759 0.02376,0.095 0.02376,0.23759 0,0.13661 -0.02376,0.23759 0.02376,0.095 0.02376,0.23759 0,0.13662 -0.02376,0.23759 z"
         style="font-style:normal;font-variant:normal;font-weight:normal;font-stretch:normal;font-size:5.93978548px;font-family:VT323;-inkscape-font-specification:VT323;fill:#b4ff69;fill-opacity:1;stroke-width:0.22274196px"
         id="path1936"
         inkscape:connector-curvature="0" />
      <path
         d="m 40.732344,292.84067 q 0.02376,0.095 0.02376,0.2376 0,0.13661 -0.02376,0.23759 h -0.475183 q -0.02376,-0.10098 -0.02376,-0.23759 0,-0.14256 0.02376,-0.2376 h -0.237592 q -0.02376,-0.10097 -0.02376,-0.23759 0,-0.14255 0.02376,-0.23759 h -0.712774 q 0.02376,0.095 0.02376,0.23759 0,0.13662 -0.02376,0.23759 h 0.712774 q 0.02376,0.095 0.02376,0.2376 0,0.13661 -0.02376,0.23759 h -0.950365 q -0.02376,-0.10098 -0.02376,-0.23759 0,-0.14256 0.02376,-0.2376 h -0.237592 q -0.02376,-0.10097 -0.02376,-0.23759 0,-0.14255 0.02376,-0.23759 h 0.237592 q -0.02376,-0.10098 -0.02376,-0.23759 0,-0.14256 0.02376,-0.23759 h 0.950365 q -0.02376,-0.10098 -0.02376,-0.23759 0,-0.14256 0.02376,-0.23759 h -0.83157 q -0.02376,-0.10098 -0.02376,-0.2376 0,-0.14255 0.02376,-0.23759 h 1.069162 q 0.02376,0.095 0.02376,0.23759 0,0.13662 -0.02376,0.2376 h 0.237591 q 0.02376,0.095 0.02376,0.23759 0,0.13661 -0.02376,0.23759 0.02376,0.095 0.02376,0.23759 0,0.13661 -0.02376,0.23759 0.02376,0.095 0.02376,0.23759 0,0.13662 -0.02376,0.23759 z"
         style="font-style:normal;font-variant:normal;font-weight:normal;font-stretch:normal;font-size:5.93978548px;font-family:VT323;-inkscape-font-specification:VT323;fill:#b4ff69;fill-opacity:1;stroke-width:0.22274196px"
         id="path1938"
         inkscape:connector-curvature="0" />
      <path
         d="m 41.685028,292.36549 q 0.02376,0.095 0.02376,0.23759 0,0.13662 -0.02376,0.23759 h -0.237591 q 0.02376,0.095 0.02376,0.2376 0,0.13661 -0.02376,0.23759 h -0.237592 q -0.02376,-0.10098 -0.02376,-0.23759 0,-0.14256 0.02376,-0.2376 -0.02376,-0.10097 -0.02376,-0.23759 0,-0.14255 0.02376,-0.23759 -0.02376,-0.10098 -0.02376,-0.23759 0,-0.14256 0.02376,-0.23759 -0.02376,-0.10098 -0.02376,-0.23759 0,-0.14256 0.02376,-0.23759 -0.02376,-0.10098 -0.02376,-0.2376 0,-0.14255 0.02376,-0.23759 -0.02376,-0.10097 -0.02376,-0.23759 0,-0.14255 0.02376,-0.23759 -0.02376,-0.10098 -0.02376,-0.23759 0,-0.14256 0.02376,-0.23759 h 0.475183 q 0.02376,0.095 0.02376,0.23759 0,0.13661 -0.02376,0.23759 0.02376,0.095 0.02376,0.23759 0,0.13662 -0.02376,0.23759 0.02376,0.095 0.02376,0.23759 0,0.13662 -0.02376,0.2376 h 0.237591 q 0.02376,0.095 0.02376,0.23759 0,0.13661 -0.02376,0.23759 h -0.237591 q 0.02376,0.095 0.02376,0.23759 0,0.13661 -0.02376,0.23759 z m 1.449308,-0.23759 q 0,0.13661 -0.02376,0.23759 h -0.237592 q 0.02376,0.095 0.02376,0.23759 0,0.13662 -0.02376,0.23759 h -0.475183 q -0.02376,-0.10097 -0.02376,-0.23759 0,-0.14255 0.02376,-0.23759 h 0.237592 q -0.02376,-0.10098 -0.02376,-0.23759 0,-0.14256 0.02376,-0.23759 h -0.237592 q -0.02376,-0.10098 -0.02376,-0.23759 0,-0.14256 0.02376,-0.23759 h -0.475183 q -0.02376,-0.10098 -0.02376,-0.2376 0,-0.14255 0.02376,-0.23759 h 0.712775 q 0.02376,0.095 0.02376,0.23759 0,0.13662 -0.02376,0.2376 h 0.237591 q 0.02376,0.095 0.02376,0.23759 0,0.13661 -0.02376,0.23759 h 0.237592 q 0.02376,0.095 0.02376,0.23759 z m -1.473067,0.95037 q 0,-0.14256 0.02376,-0.2376 h 0.712774 q 0.02376,0.095 0.02376,0.2376 0,0.13661 -0.02376,0.23759 h -0.712774 q -0.02376,-0.10098 -0.02376,-0.23759 z"
         style="font-style:normal;font-variant:normal;font-weight:normal;font-stretch:normal;font-size:5.93978548px;font-family:VT323;-inkscape-font-specification:VT323;fill:#b4ff69;fill-opacity:1;stroke-width:0.22274196px"
         id="path1940"
         inkscape:connector-curvature="0" />
      <path
         d="m 45.393775,292.60308 q 0,0.13662 -0.02376,0.23759 h -0.237592 q 0.02376,0.095 0.02376,0.2376 0,0.13661 -0.02376,0.23759 H 43.82567 q -0.02376,-0.10098 -0.02376,-0.23759 0,-0.14256 0.02376,-0.2376 h 1.069162 q -0.02376,-0.10097 -0.02376,-0.23759 0,-0.14255 0.02376,-0.23759 h -0.950366 q -0.02376,-0.10098 -0.02376,-0.23759 0,-0.14256 0.02376,-0.23759 h -0.237591 q -0.02376,-0.10098 -0.02376,-0.23759 0,-0.14256 0.02376,-0.23759 h 0.237591 q -0.02376,-0.10098 -0.02376,-0.2376 0,-0.14255 0.02376,-0.23759 h 1.306753 q 0.02376,0.095 0.02376,0.23759 0,0.13662 -0.02376,0.2376 h -1.069161 q 0.02376,0.095 0.02376,0.23759 0,0.13661 -0.02376,0.23759 h 0.950365 q 0.02376,0.095 0.02376,0.23759 0,0.13661 -0.02376,0.23759 h 0.237592 q 0.02376,0.095 0.02376,0.23759 z"
         style="font-style:normal;font-variant:normal;font-weight:normal;font-stretch:normal;font-size:5.93978548px;font-family:VT323;-inkscape-font-specification:VT323;fill:#b4ff69;fill-opacity:1;stroke-width:0.22274196px"
         id="path1942"
         inkscape:connector-curvature="0" />
      <path
         d="m 47.237429,292.60308 q 0,0.13662 -0.02376,0.23759 0.02376,0.095 0.02376,0.2376 0,0.13661 -0.02376,0.23759 H 46.61969 q -0.02376,-0.10098 -0.02376,-0.23759 0,-0.14256 0.02376,-0.2376 -0.02376,-0.10097 -0.02376,-0.23759 0,-0.14255 0.02376,-0.23759 h 0.593979 q 0.02376,0.095 0.02376,0.23759 z"
         style="font-style:normal;font-variant:normal;font-weight:normal;font-stretch:normal;font-size:5.93978548px;font-family:VT323;-inkscape-font-specification:VT323;fill:#b4ff69;fill-opacity:1;stroke-width:0.22274196px"
         id="path1944"
         inkscape:connector-curvature="0" />
      <path
         d="m 50.245279,292.36549 q 0.02376,0.095 0.02376,0.23759 0,0.13662 -0.02376,0.23759 h -0.237591 q 0.02376,0.095 0.02376,0.2376 0,0.13661 -0.02376,0.23759 h -1.187957 q -0.02376,-0.10098 -0.02376,-0.23759 0,-0.14256 0.02376,-0.2376 h -0.237592 q -0.02376,-0.10097 -0.02376,-0.23759 0,-0.14255 0.02376,-0.23759 h -0.237591 q -0.02376,-0.10098 -0.02376,-0.23759 0,-0.14256 0.02376,-0.23759 h 0.237591 q -0.02376,-0.10098 -0.02376,-0.23759 0,-0.14256 0.02376,-0.23759 h 0.237592 q -0.02376,-0.10098 -0.02376,-0.2376 0,-0.14255 0.02376,-0.23759 h 1.187957 q 0.02376,0.095 0.02376,0.23759 0,0.13662 -0.02376,0.2376 h 0.237591 q 0.02376,0.095 0.02376,0.23759 0,0.13661 -0.02376,0.23759 h -0.475183 q -0.02376,-0.10098 -0.02376,-0.23759 0,-0.14256 0.02376,-0.23759 h -0.712774 q 0.02376,0.095 0.02376,0.23759 0,0.13661 -0.02376,0.23759 h -0.237591 q 0.02376,0.095 0.02376,0.23759 0,0.13661 -0.02376,0.23759 h 0.237591 q 0.02376,0.095 0.02376,0.23759 0,0.13662 -0.02376,0.23759 h 0.712774 q -0.02376,-0.10097 -0.02376,-0.23759 0,-0.14255 0.02376,-0.23759 z"
         style="font-style:normal;font-variant:normal;font-weight:normal;font-stretch:normal;font-size:5.93978548px;font-family:VT323;-inkscape-font-specification:VT323;fill:#b4ff69;fill-opacity:1;stroke-width:0.22274196px"
         id="path1946"
         inkscape:connector-curvature="0" />
      <path
         d="m 52.647273,292.1279 q 0,0.13661 -0.02376,0.23759 H 52.44532 q 0.02376,0.095 0.02376,0.23759 0,0.13662 -0.02376,0.23759 h -0.296989 q 0.02376,0.095 0.02376,0.2376 0,0.13661 -0.02376,0.23759 h -0.950365 q -0.02376,-0.10098 -0.02376,-0.23759 0,-0.14256 0.02376,-0.2376 h -0.29699 q -0.02376,-0.10097 -0.02376,-0.23759 0,-0.14255 0.02376,-0.23759 h -0.178193 q -0.02376,-0.10098 -0.02376,-0.23759 0,-0.14256 0.02376,-0.23759 h 0.178193 q -0.02376,-0.10098 -0.02376,-0.23759 0,-0.14256 0.02376,-0.23759 h 0.29699 q -0.02376,-0.10098 -0.02376,-0.2376 0,-0.14255 0.02376,-0.23759 h 0.950365 q 0.02376,0.095 0.02376,0.23759 0,0.13662 -0.02376,0.2376 h 0.296989 q 0.02376,0.095 0.02376,0.23759 0,0.13661 -0.02376,0.23759 h 0.178194 q 0.02376,0.095 0.02376,0.23759 z m -0.498942,0.23759 q -0.02376,-0.10098 -0.02376,-0.23759 0,-0.14256 0.02376,-0.23759 h -0.178193 q -0.02376,-0.10098 -0.02376,-0.23759 0,-0.14256 0.02376,-0.23759 h -0.593979 q 0.02376,0.095 0.02376,0.23759 0,0.13661 -0.02376,0.23759 h -0.178193 q 0.02376,0.095 0.02376,0.23759 0,0.13661 -0.02376,0.23759 h 0.178193 q 0.02376,0.095 0.02376,0.23759 0,0.13662 -0.02376,0.23759 h 0.593979 q -0.02376,-0.10097 -0.02376,-0.23759 0,-0.14255 0.02376,-0.23759 z"
         style="font-style:normal;font-variant:normal;font-weight:normal;font-stretch:normal;font-size:5.93978548px;font-family:VT323;-inkscape-font-specification:VT323;fill:#b4ff69;fill-opacity:1;stroke-width:0.22274196px"
         id="path1948"
         inkscape:connector-curvature="0" />
      <path
         d="m 53.421766,291.17753 q 0,0.13662 -0.02376,0.2376 H 53.5762 q 0.02376,0.095 0.02376,0.23759 0,0.13661 -0.02376,0.23759 0.02376,0.095 0.02376,0.23759 0,0.13661 -0.02376,0.23759 0.02376,0.095 0.02376,0.23759 0,0.13662 -0.02376,0.23759 0.02376,0.095 0.02376,0.2376 0,0.13661 -0.02376,0.23759 h -0.475182 q -0.02376,-0.10098 -0.02376,-0.23759 0,-0.14256 0.02376,-0.2376 -0.02376,-0.10097 -0.02376,-0.23759 0,-0.14255 0.02376,-0.23759 -0.02376,-0.10098 -0.02376,-0.23759 0,-0.14256 0.02376,-0.23759 -0.02376,-0.10098 -0.02376,-0.23759 0,-0.14256 0.02376,-0.23759 -0.02376,-0.10098 -0.02376,-0.2376 0,-0.14255 0.02376,-0.23759 h 0.296989 q 0.02376,0.095 0.02376,0.23759 z m 0.653376,0 q 0,0.13662 -0.02376,0.2376 h 0.178194 q 0.02376,0.095 0.02376,0.23759 0,0.13661 -0.02376,0.23759 0.02376,0.095 0.02376,0.23759 0,0.13661 -0.02376,0.23759 0.02376,0.095 0.02376,0.23759 0,0.13662 -0.02376,0.23759 0.02376,0.095 0.02376,0.2376 0,0.13661 -0.02376,0.23759 H 53.87319 q -0.02376,-0.10098 -0.02376,-0.23759 0,-0.14256 0.02376,-0.2376 -0.02376,-0.10097 -0.02376,-0.23759 0,-0.14255 0.02376,-0.23759 -0.02376,-0.10098 -0.02376,-0.23759 0,-0.14256 0.02376,-0.23759 -0.02376,-0.10098 -0.02376,-0.23759 0,-0.14256 0.02376,-0.23759 H 53.5762 q -0.02376,-0.10098 -0.02376,-0.2376 0,-0.14255 0.02376,-0.23759 h 0.475183 q 0.02376,0.095 0.02376,0.23759 z m 0.926607,0.71278 q 0.02376,0.095 0.02376,0.23759 0,0.13661 -0.02376,0.23759 0.02376,0.095 0.02376,0.23759 0,0.13662 -0.02376,0.23759 0.02376,0.095 0.02376,0.2376 0,0.13661 -0.02376,0.23759 h -0.475183 q -0.02376,-0.10098 -0.02376,-0.23759 0,-0.14256 0.02376,-0.2376 -0.02376,-0.10097 -0.02376,-0.23759 0,-0.14255 0.02376,-0.23759 -0.02376,-0.10098 -0.02376,-0.23759 0,-0.14256 0.02376,-0.23759 -0.02376,-0.10098 -0.02376,-0.23759 0,-0.14256 0.02376,-0.23759 h -0.296989 q -0.02376,-0.10098 -0.02376,-0.2376 0,-0.14255 0.02376,-0.23759 h 0.534581 q 0.02376,0.095 0.02376,0.23759 0,0.13662 -0.02376,0.2376 h 0.237591 q 0.02376,0.095 0.02376,0.23759 0,0.13661 -0.02376,0.23759 z"
         style="font-style:normal;font-variant:normal;font-weight:normal;font-stretch:normal;font-size:5.93978548px;font-family:VT323;-inkscape-font-specification:VT323;fill:#b4ff69;fill-opacity:1;stroke-width:0.22274196px"
         id="path1950"
         inkscape:connector-curvature="0" />
    </g>
  </g>
</svg>
